# xmcd
#
# Track frame offsets: 
#        150
#        16887
#        27472
#        48214
#        51030
#        68915
#        73282
#        99202
#        104687
#        119475
#        129615
#        135757
#        143260
#        146617
#        163787
#        169965
#        181152
#        196940
#        206080
#        219522
#        227005
#        236017
#
# Disc length: 3367 seconds
#
# Revision: 0
# Processed by: cddbd v1.5PL3 Copyright (c) Steve Scherf et al.
# Submitted via: ExactAudioCopy v0.95a3
#
DISCID=3d0d2516
DTITLE=Various Artist - C'est la fete!
DYEAR=1900
DGENRE=A Cappella
TTITLE0=IEMILE£¦image
TTITLE1=halloween
TTITLE2=le grand orchestre du splendid
TTITLE3=sequence frisson
TTITLE4=zomb
TTITLE5=ma sorciere bien aimee
TTITLE6=les bidochons
TTITLE7=sequence frisson:epouvante
TTITLE8=annie cordy
TTITLE9=dracula prince des tenebres
TTITLE10=la famila adams
TTITLE11=sequence frisson
TTITLE12=les monstres
TTITLE13=damien,la malediction
TTITLE14=sequennce frisson
TTITLE15=lio
TTITLE16=creepshow
TTITLE17=sequence frisson
TTITLE18=halloween kids
TTITLE19=sequence frisson
TTITLE20=hammer horrors
TTITLE21=jean-patrick capdevielle
EXTD=
EXTT0=
EXTT1=
EXTT2=
EXTT3=
EXTT4=
EXTT5=
EXTT6=
EXTT7=
EXTT8=
EXTT9=
EXTT10=
EXTT11=
EXTT12=
EXTT13=
EXTT14=
EXTT15=
EXTT16=
EXTT17=
EXTT18=
EXTT19=
EXTT20=
EXTT21=
PLAYORDER=
